<svg width="135" height="156" viewBox="0 0 135 156" fill="none" xmlns="http://www.w3.org/2000/svg">
<path d="M18.4294 10.1986V126.769H94.1966C95.3034 130.048 96.9306 133.864 99.3755 137.846C105.017 147.022 112.211 152.573 116.952 155.596C115.383 152.507 111.856 144.495 113.913 134.856C114.615 131.568 115.796 128.859 116.952 126.777H135V10.1986H18.4294Z" fill="#69D5FF"/>
<path d="M7.41083 0.295044V28.3371H13.1927V6.0769H118.2V111.084H102.539L100.887 114.057C99.1855 117.122 97.9548 120.376 97.2444 123.746C96.8232 125.737 96.5919 127.678 96.5258 129.544C95.3612 128.066 94.2874 126.521 93.2962 124.911C91.3965 121.821 89.8354 118.493 88.6625 115.015L87.3327 111.084H13.1927V91.2933H7.41083V116.866H83.178C84.2848 120.145 85.912 123.961 88.3569 127.942C93.9983 137.119 101.193 142.669 105.934 145.692C104.364 142.603 100.837 134.591 102.894 124.952C103.596 121.665 104.777 118.955 105.934 116.874H123.981V0.295044H7.41083Z" fill="black"/>
<path d="M43.5062 80.3243L43.4484 54.6859L30.8769 75.8062H26.4249L13.9113 55.2393V80.3243H4.62729V37.5964H12.8045L28.7955 64.1516L44.5469 37.5964H52.6663L52.7902 80.3243H43.5144H43.5062Z" fill="#149EF4"/>
<path d="M60.2322 58.9644C60.2322 46.2691 70.1192 36.8694 83.6075 36.8694C97.0957 36.8694 106.983 46.2113 106.983 58.9644C106.983 71.7175 97.0379 81.0594 83.6075 81.0594C70.177 81.0594 60.2322 71.6597 60.2322 58.9644ZM96.9801 58.9644C96.9801 50.845 91.2395 45.2944 83.6157 45.2944C75.9919 45.2944 70.2514 50.845 70.2514 58.9644C70.2514 67.0838 75.9919 72.6344 83.6157 72.6344C91.2395 72.6344 96.9801 67.0755 96.9801 58.9644Z" fill="#149EF4"/>
<path d="M39.0789 76.9874L39.0211 51.349L26.4497 72.4693H21.9976L9.48403 51.9024V76.9874H0.200012V34.2595H8.37721L24.3682 60.8147L40.1196 34.2595H48.239L48.3629 76.9874H39.0872H39.0789Z" fill="black"/>
<path d="M55.805 55.6274C55.805 42.9321 65.692 33.5325 79.1802 33.5325C92.6685 33.5325 102.555 42.8743 102.555 55.6274C102.555 68.3806 92.6107 77.7224 79.1802 77.7224C65.7498 77.7224 55.805 68.3227 55.805 55.6274ZM92.5528 55.6274C92.5528 47.5081 86.8123 41.9575 79.1885 41.9575C71.5647 41.9575 65.8241 47.5081 65.8241 55.6274C65.8241 63.7468 71.5647 69.2974 79.1885 69.2974C86.8123 69.2974 92.5528 63.7386 92.5528 55.6274Z" fill="black"/>
<path d="M23.8809 90.1287H27.35V102.287H34.8582V105.112H23.8809V90.1287Z" fill="black"/>
<path d="M46.8844 98.5371V105.104H43.7622V103.666C43.1427 104.715 41.945 105.269 40.2518 105.269C37.5591 105.269 35.9484 103.774 35.9484 101.783C35.9484 99.7926 37.3856 98.3389 40.896 98.3389H43.5474C43.5474 96.9017 42.6884 96.0674 40.896 96.0674C39.6736 96.0674 38.4098 96.4721 37.5756 97.1329L36.3779 94.8037C37.6417 93.9033 39.5001 93.416 41.3421 93.416C44.8525 93.416 46.8844 95.0432 46.8844 98.5288V98.5371ZM43.5474 101.469V100.296H41.2595C39.6984 100.296 39.2028 100.875 39.2028 101.643C39.2028 102.477 39.9049 103.03 41.086 103.03C42.2011 103.03 43.1592 102.518 43.5474 101.469Z" fill="black"/>
<path d="M61.1078 93.5978L56.251 105.112H52.8067L47.9665 93.5978H51.4108L54.5991 101.428L57.8947 93.5978H61.1078Z" fill="black"/>
<path d="M61.2978 99.3549C61.2978 95.8857 63.974 93.4243 67.6331 93.4243C71.2921 93.4243 73.9435 95.8857 73.9435 99.3549C73.9435 102.824 71.2921 105.285 67.6331 105.285C63.974 105.285 61.2978 102.824 61.2978 99.3549ZM70.5653 99.3549C70.5653 97.3642 69.3015 96.1666 67.6331 96.1666C65.9646 96.1666 64.676 97.3642 64.676 99.3549C64.676 101.345 65.9563 102.543 67.6331 102.543C69.3098 102.543 70.5653 101.345 70.5653 99.3549Z" fill="black"/>
<path d="M83.3185 93.4243V96.5052C83.0376 96.4804 82.8229 96.4639 82.5668 96.4639C80.7249 96.4639 79.5024 97.4716 79.5024 99.677V105.112H76.1655V93.5978H79.3537V95.1176C80.1715 94.0025 81.5343 93.4243 83.3102 93.4243H83.3185Z" fill="black"/>
<path d="M95.4273 98.5371V105.104H92.3051V103.666C91.6856 104.715 90.4879 105.269 88.7947 105.269C86.102 105.269 84.4913 103.774 84.4913 101.783C84.4913 99.7926 85.9285 98.3389 89.4307 98.3389H92.0821C92.0821 96.9017 91.2231 96.0674 89.4307 96.0674C88.2082 96.0674 86.9528 96.4721 86.1103 97.1329L84.9126 94.8037C86.1763 93.9033 88.0348 93.416 89.8767 93.416C93.3871 93.416 95.419 95.0432 95.419 98.5288L95.4273 98.5371ZM92.0903 101.469V100.296H89.8024C88.2413 100.296 87.7457 100.875 87.7457 101.643C87.7457 102.477 88.456 103.03 89.6289 103.03C90.744 103.03 91.7021 102.518 92.0903 101.469Z" fill="black"/>
<path d="M88.266 20.0193H98.6982L89.1416 30.4102H81.4765L88.266 20.0193Z" fill="#149EF4"/>
<path d="M85.9698 18.1857H96.4019L86.8453 28.5766H79.1802L85.9698 18.1857Z" fill="black"/>
</svg>
